<svg width="1920" height="1347" fill="none" xmlns="http://www.w3.org/2000/svg"><path d="M297.208 633.738v549.352l-475.751-274.677 475.751-274.675z" stroke="#EBEBEB"/><circle cx="296.896" cy="1182.88" r="5" transform="rotate(-30 296.896 1182.88)" fill="#F2F2F2"/><circle cx="297.053" cy="633.154" r="5" transform="rotate(-30 297.053 633.154)" fill="#F2F2F2"/><path d="M213.436 75.381v256.396L-8.609 203.579 213.436 75.381zM1668.56 332.747V76.351l222.05 128.198-222.05 128.198zm-292.94 101.878L899.874 709.299V159.95l475.746 274.675z" stroke="#EBEBEB"/><circle cx="899.739" cy="159.198" r="5" transform="rotate(30 899.739 159.198)" fill="#F2F2F2"/><circle cx="899.896" cy="708.926" r="5" transform="rotate(30 899.896 708.926)" fill="#F2F2F2"/><circle cx="1376.05" cy="434.198" r="5" transform="rotate(30 1376.05 434.198)" fill="#F2F2F2"/></svg>